<svg xmlns="http://www.w3.org/2000/svg" viewBox="0 0 1505.8 555.3"><defs><style>.cls-1{fill:#6f4d27;}.cls-2{fill:#d6872a;}</style></defs><g id="Layer_2" data-name="Layer 2"><g id="Layer_1-2" data-name="Layer 1"><path class="cls-1" d="M398,387v26.3c0,20.2-.3,40.4.1,60.6.1,5.5-1,8.8-6.7,10-1.6.3-3,1.3-5,2.3L426,527l-23.9,23.8-35.6-35.7c-3.5-3.5-7.2-6.7-10.3-10.4s-5.6-3.5-9.6-1.9Q282,528.9,217.1,554.5a12.4,12.4,0,0,1-8.3.1q-65.1-25.8-129.9-52c-4-1.6-6.3-1-9.2,2-15.3,15.6-30.8,31-45.8,46L0,526.8l39-40.2c-.5-.6-.6-1.1-.9-1.1-9.5-1.7-10.8-7.7-10.6-16.5.7-25,.3-50.1.3-75.1v-6.8c13.1,0,25.9-.2,38.7.1,1.4.1,3,2.5,4,4.1,20.2,31.7,47.5,55.1,82.6,68.6,74.8,28.9,158.1.8,201.3-67.6,2.4-4,4.9-5.6,9.7-5.4C375.1,387.3,386.1,387,398,387Z"/><path class="cls-1" d="M337.8,0c-21.7,22.1-43.3,44.3-65.1,66.3a7.8,7.8,0,0,1-5.4,2q-54,.3-108,0a8.3,8.3,0,0,1-5.4-2C132.1,44.3,110.4,22.1,88.8,0Z"/><path class="cls-1" d="M45.4,102.3H146v29.8c0,10.3.1,20.5-.2,30.8,0,1.8-1.3,4.4-2.7,5.1-25,11.8-45.7,28.8-62.7,50.5a14.6,14.6,0,0,1-1.5,1.3V135.9H45.4Z"/><path class="cls-1" d="M280.6,102.3H381.3v33.1H348v85.1l-8.1-9.5a169.3,169.3,0,0,0-55.1-42.4c-1.7-.8-4-2.8-4-4.2C280.5,143.8,280.6,123.3,280.6,102.3Z"/><path class="cls-1" d="M246.5,155.9a167.8,167.8,0,0,0-66.6,0V102.5h66.6Z"/><path class="cls-2" d="M290.7,259.5c-20.5-20.1-45.4-30.6-74.9-32.4,10.4-4.4,15.2-11.8,13.8-20.3a17.8,17.8,0,0,0-34.6-2.2,17.6,17.6,0,0,0,1.6,13.5c2.4,4.4,6.3,7.1,11.6,8.9-68.3,3.9-107.4,60.4-107.7,106.4H324.1C322,304.4,311.1,279.7,290.7,259.5Zm-67.1-8c-4-.1-8.1-.4-12.1-.8a5.7,5.7,0,0,1-5.3-5.9,5.8,5.8,0,0,1,5.6-5.7h4.4c2.2.2,5.1.4,8.1.8a6,6,0,0,1,5.5,6.2A5.8,5.8,0,0,1,223.6,251.5Zm81.5,70c-3.4.9-6.3-1.1-7.5-5.3-7.4-25.2-22.7-44-46.1-56.1-2.3-1.2-4.8-2-7-3.3s-3.8-4-2.6-6.6,3.2-3.4,4.7-4.8l4.8,1.7q43.8,19.7,57.4,65.8C310.1,317.3,308.6,320.5,305.1,321.5Z"/><path class="cls-2" d="M102.2,369.1H321.9c-2.5,7.5-4.9,14.8-7.4,22.1-.2.6-1.2,1.1-1.9,1.3a11.1,11.1,0,0,1-2.6.1q-98,0-195.9,0c-3.1,0-4.6-.7-5.5-3.8C106.8,382.2,104.5,375.8,102.2,369.1Z"/><path class="cls-2" d="M211.7,357.1H91a22.9,22.9,0,0,1-3.7-.1c-3.2-.5-5.1-2.5-5.1-5.8s1.9-5.2,5.1-5.8a17.9,17.9,0,0,1,3.3-.1H333.5a18.2,18.2,0,0,1,3.3.1c3.1.6,5.1,2.5,5.1,5.8s-1.9,5.2-5.1,5.8a22.6,22.6,0,0,1-3.7.1Z"/><path class="cls-1" d="M536.9,264V126.1h-64V91.5H640.5v22.3l-12.4,12.3H576.4V264Z"/><path class="cls-1" d="M665,264V91.5H789.3c12.4,0,22.2,3.7,29.6,11.2S830,119.9,830,132.2v29.6a42.1,42.1,0,0,1-3.4,17.1c-2.3,5-5.1,8.8-8.4,11.3a55.2,55.2,0,0,1-9.7,6.1,38.1,38.1,0,0,1-8.3,3.1l-3.4.6,36.9,44.3V264H798l-48.1-61.6H704.4V264Zm39.4-96.1h70.1c10.7,0,16-5.3,16-16V142c0-10.6-5.3-15.9-16-15.9H704.4Z"/><path class="cls-1" d="M850.9,264V244.3L917.4,91.5h51.7l66.5,152.8V264H998.7l-13.6-33.2H901.4L887.8,264Zm64-66.5h56.6l-28.2-70.2Z"/><path class="cls-1" d="M1058.9,264V91.5h39.5V264Z"/><path class="cls-1" d="M1137.7,264V91.5h41.9l91.1,115.8h1.2l-2.4-33.3V91.5h39.3V264H1267l-91.2-115.8h-1.2l2.6,33.3V264Z"/><path class="cls-1" d="M1342.2,264V229.5h107.1c4.9,0,8.4-1,10.4-3.1s3.1-5.5,3.1-10.4v-2.5c0-4.3-1-7.4-3.1-9.3s-5.5-3.4-10.4-4.2l-69-11.2c-12.4-2-21.8-6.2-28.3-12.7s-9.8-14.9-9.8-25.4V132.2c0-12.4,3.6-22.2,11-29.6s17.3-11.1,29.6-11.1h114.5v22.3l-12.4,12.3h-89.8q-7.3,0-10.5,3c-2.1,2.1-3.1,5.6-3.1,10.5V142c0,4.3,1,7.4,3.1,9.4s5.6,3.4,10.5,4.2l68.9,11.1c12.3,2,21.8,6.2,28.4,12.7s9.8,14.9,9.8,25.4v18.5c0,12.4-3.7,22.3-11,29.6s-17.3,11.1-29.6,11.1Z"/><path class="cls-2" d="M844.4,308.7q-26.7,0-26.7,51.6V374c0,16.3,2.3,29.1,7.1,38.4s11.6,13.9,20.9,13.9q18.9,0,34.8-37h3.1l-1.2,38.5h-1.9a10.2,10.2,0,0,0-1.9-2.6,3.2,3.2,0,0,0-2.5-.8c-1.1,0-5.2.9-12.5,2.7a96.1,96.1,0,0,1-22.1,2.6c-18.7,0-33.3-5-43.6-15.2s-15.4-25.3-15.4-45.6,5.4-36,16.1-47.1,25.2-16.5,43.4-16.5a85.1,85.1,0,0,1,20.7,2.6c6.7,1.8,10.6,2.7,11.8,2.7a3.5,3.5,0,0,0,2.6-.8,13.4,13.4,0,0,0,1.9-2.6h1.9l1.4,37.4h-3.2C874,333,868.6,324.1,863.2,318S851.5,308.7,844.4,308.7Z"/><path class="cls-2" d="M965.6,424.7,953,387.4H918.9l-13.3,37.3h12.9V428H892.1v-3.3h8.1l44-118.6h14.2l43.5,118.6h7.9V428H953.4v-3.3Zm-29-86.3-16.2,45.2h31.2Z"/><path class="cls-2" d="M1014.5,307.2h89.8l1.7,35.9h-3.1c-4.3-12.5-9.2-20.9-14.8-25.4s-13.9-6.7-24.9-6.7h-4.9v56.1h7.8a17.8,17.8,0,0,0,13.8-6.1c3.7-4,6.2-9.5,7.6-16.5h2.6v51.1h-2.9c-1.9-8.7-4.4-14.8-7.7-18.5s-7.8-5.5-13.4-5.5h-7.8v52.6h21.4V428h-65.2v-3.8h10.2V311h-10.2Z"/><path class="cls-2" d="M1116.7,307.2h89.7l1.8,34.1h-3.1c-4.9-11.6-9.9-19.5-15.2-23.9s-13.1-6.4-23.3-6.4h-6.1v53.3h5.9a17.4,17.4,0,0,0,13.6-6.1q5.6-6.1,7.8-16.5h2.6v51.1h-2.9c-2.1-8.6-4.9-14.8-8.4-18.5s-8.3-5.5-14.4-5.5h-4.2v55.4h6.6c10.6,0,19.6-3.2,27-9.5a48.4,48.4,0,0,0,15.3-24.3h3.4l-1.3,37.6h-94.8v-3.8h10.2V311h-10.2Z"/><path class="cls-2" d="M741.2,364.5c-1.2-4.1-2.9-7.8-6.3-10.6s-10-3.9-15.5-3.3l-68.5,6.7-50.4,4.9c-7.5.7-13.7-2.1-17.4-8.6-5.2-9.5-13.4-13.7-23.7-14.7-16.7-1.8-32.1,2.6-47,9.9A48.8,48.8,0,0,0,497.9,359c-5.1,5.5-5.1,10.7,0,16.2s12.6,9.7,19.9,12.8c12.6,5.3,25.7,8.4,39.5,7.4,8.5-.7,16.5-2.8,22.3-9.8a37,37,0,0,0,3.1-4.6c4.3-6.9,10.5-9.9,18.5-9.2l78.3,7.7c14,1.4,27.9,2.7,41.8,4.2,9.9,1,17.2-4,19.6-13.8l.3-.6Z"/><path class="cls-2" d="M1240,359.7c1.2-4,2.9-7.7,6.3-10.5s10-3.9,15.6-3.4l68.4,6.7,49.9,4.9c8.1.8,14.5-2.2,18.4-9.4,5.1-9.1,13.2-12.7,22.9-13.8a59.7,59.7,0,0,1,8.5-.5h51.6a9.7,9.7,0,0,1,2.4.1,3.6,3.6,0,0,1,3.2,3.7,3.7,3.7,0,0,1-3,3.9,18.7,18.7,0,0,1-3.4.3h-48.7a3.7,3.7,0,0,0-3.4,3.7,3.5,3.5,0,0,0,2.9,4.1,10.9,10.9,0,0,0,3.1.3h46.6c4,0,5.9,1.4,5.9,4.1s-2,4.2-5.9,4.2h-46.6a11.1,11.1,0,0,0-2.6.1,3.7,3.7,0,0,0-3.4,3.5,3.8,3.8,0,0,0,2.7,4.3,10.9,10.9,0,0,0,3.1.3h46.6a14.6,14.6,0,0,1,2.9.2,3.8,3.8,0,0,1,3.2,3.7,3.6,3.6,0,0,1-2.6,3.9,9.1,9.1,0,0,1-3.3.4h-47.1c-1,0-2.4-.2-3,.4s-2.4,2.4-2.4,3.7,1.3,2.7,2.5,3.6,2.1.5,3.2.5h46.8a13.7,13.7,0,0,1,2.9.2,3.9,3.9,0,0,1,3,4.2,3.7,3.7,0,0,1-3.4,3.5h-1.5c-19.5-.1-38.9,0-58.4-.4-8.5-.1-16.5-2.6-22.3-9.6a47.6,47.6,0,0,1-3.1-4.7c-4.2-6.9-10.5-9.9-18.5-9.1l-73.5,7.2-46.6,4.6c-9.9,1-17.2-4-19.6-13.7l-.3-.7Z"/><path class="cls-1" d="M494.1,531.4V458.5h49.3v12.9H508.1v20.5h27.5v12.3H508.1v27.2Z"/><path class="cls-1" d="M543.9,506.9c0-14.5,11.3-26.1,26.5-26.1s26.4,11.6,26.4,26.1-11.3,26-26.5,26S543.9,521.4,543.9,506.9Zm39.8,0c0-7.9-5.7-13.9-13.3-13.9S557,499,557,506.9s5.7,13.7,13.4,13.7S583.7,514.7,583.7,506.9Z"/><path class="cls-1" d="M603.7,506.9c0-14.5,11.2-26.1,26.4-26.1s26.4,11.6,26.4,26.1-11.3,26-26.5,26S603.7,521.4,603.7,506.9Zm39.7,0c0-7.9-5.7-13.9-13.3-13.9s-13.4,6-13.4,13.9,5.7,13.7,13.4,13.7S643.4,514.7,643.4,506.9Z"/><path class="cls-1" d="M702.2,457.8h13.2v73.6H704l-.8-5.8a19.6,19.6,0,0,1-15.3,7.1c-13.5,0-24.5-11.5-24.5-26s11.1-25.9,24.5-25.9a19.1,19.1,0,0,1,14.3,6Zm.8,49a13.3,13.3,0,0,0-13.4-13.7c-7.5,0-13.2,5.7-13.2,13.7s5.7,13.5,13.2,13.5A13.2,13.2,0,0,0,703,506.8Z"/><path class="cls-1" d="M755.2,531.4V458.5h26.3c21.2,0,38.1,15.8,38.1,36.5s-16.8,36.4-37.9,36.4Zm14.1-13.2h12.8c13.2,0,23.2-9.9,23.2-23.2s-10-23.2-23.3-23.2H769.3Z"/><path class="cls-1" d="M876.1,506.4a36.4,36.4,0,0,1-.3,4.5H840.4c1.5,6.7,6.8,10.5,13.6,10.5a16.4,16.4,0,0,0,11.3-4.3l6.1,8.9a26.5,26.5,0,0,1-18.4,6.9c-14.8,0-25.6-11.8-25.6-26s10.2-26.1,24.4-26.1S876.1,491.4,876.1,506.4Zm-35.6-5h23.2c-1.4-6-5.4-9.4-11.4-9.4S842,495.4,840.5,501.4Z"/><path class="cls-1" d="M886,531.4V455.8h13.2v75.6Z"/><path class="cls-1" d="M910.7,464.3a8.3,8.3,0,1,1,8.3,7.9A8.1,8.1,0,0,1,910.7,464.3Zm1.5,67.1V482h13.1v49.4Z"/><path class="cls-1" d="M953,531.4,932.6,482h14.3l12.6,35.1L972.2,482h14.4l-20.5,49.4Z"/><path class="cls-1" d="M1037.5,506.4a24.2,24.2,0,0,1-.4,4.5h-35.4c1.6,6.7,6.9,10.5,13.7,10.5a16.2,16.2,0,0,0,11.2-4.3l6.1,8.9a26.4,26.4,0,0,1-18.3,6.9c-14.8,0-25.6-11.8-25.6-26s10.2-26.1,24.3-26.1C1028.8,480.8,1037.5,491.4,1037.5,506.4Zm-35.7-5h23.3c-1.4-6-5.4-9.4-11.4-9.4S1003.3,495.4,1001.8,501.4Z"/><path class="cls-1" d="M1084.2,484.9l-5.9,10.5a12.4,12.4,0,0,0-7.3-2.5c-5.6,0-10.2,5.1-10.4,12.8v25.7h-13.2V482h11.2l.8,6.4a14.8,14.8,0,0,1,13-7.6A20.1,20.1,0,0,1,1084.2,484.9Z"/><path class="cls-1" d="M1096.1,549.8l7.8-18.4L1083.5,482h14.3l12.6,34.8L1123,482h14.6l-27.3,67.8Z"/><path class="cls-1" d="M1168.1,464.3a8,8,0,0,1,8.2-7.8,7.9,7.9,0,1,1-8.2,7.8Zm1.4,67.1V482h13.2v49.4Z"/><path class="cls-1" d="M1243.8,501.9v29.5h-13.2V504.8c0-8-3.7-11.9-10.2-11.9a11.3,11.3,0,0,0-11.4,11.6v26.9h-13.1V482H1207l.7,6.4c3.8-4.7,10.5-7.6,16.8-7.6C1236.2,480.8,1243.8,488.2,1243.8,501.9Z"/><path class="cls-1" d="M1296.5,531.4V471.7h-21.4V458.5H1332v13.2h-21.4v59.7Z"/><path class="cls-1" d="M1368.1,484.9l-5.8,10.5a12.9,12.9,0,0,0-7.4-2.5c-5.6,0-10.2,5.1-10.4,12.8v25.7h-13.2V482h11.2l.8,6.4a14.8,14.8,0,0,1,13-7.6A20.1,20.1,0,0,1,1368.1,484.9Z"/><path class="cls-1" d="M1407.3,482h11.3v49.4h-11.4l-.7-5.8a19.8,19.8,0,0,1-15.4,7.1c-13.4,0-24.5-11.5-24.5-26s11.1-25.9,24.5-25.9a20.1,20.1,0,0,1,15.4,7Zm-1.1,24.8c0-8-5.9-13.7-13.4-13.7s-13.1,5.7-13.1,13.7,5.7,13.5,13.1,13.5A13.2,13.2,0,0,0,1406.2,506.8Z"/><path class="cls-1" d="M1430.1,464.3a8.1,8.1,0,0,1,8.3-7.8,7.9,7.9,0,1,1,0,15.7A8.1,8.1,0,0,1,1430.1,464.3Zm1.5,67.1V482h13.2v49.4Z"/><path class="cls-1" d="M1505.8,501.9v29.5h-13.2V504.8c0-8-3.6-11.9-10.1-11.9a11.3,11.3,0,0,0-11.4,11.6v26.9h-13.2V482H1469l.8,6.4c3.8-4.7,10.4-7.6,16.8-7.6C1498.3,480.8,1505.8,488.2,1505.8,501.9Z"/></g></g></svg>